<svg width="42" height="42" viewBox="0 0 42 42" fill="none" xmlns="http://www.w3.org/2000/svg">
<rect width="42" height="42" rx="21" fill="white"/>
<path d="M28.2 14.8L28.6242 14.3757C28.8585 14.6101 28.8585 14.9899 28.6242 15.2243L28.2 14.8ZM23.9757 11.4243C23.7414 11.1899 23.7414 10.8101 23.9757 10.5757C24.21 10.3414 24.5899 10.3414 24.8242 10.5757L23.9757 11.4243ZM24.8242 19.0243C24.5899 19.2586 24.21 19.2586 23.9757 19.0243C23.7414 18.7899 23.7414 18.4101 23.9757 18.1757L24.8242 19.0243ZM28.2 15.4H16.7999V14.2H28.2V15.4ZM27.7757 15.2243L23.9757 11.4243L24.8242 10.5757L28.6242 14.3757L27.7757 15.2243ZM28.6242 15.2243L24.8242 19.0243L23.9757 18.1757L27.7757 14.3757L28.6242 15.2243ZM16.7999 15.4C15.0326 15.4 13.6 16.8327 13.6 18.6H12.4C12.4 16.1699 14.3699 14.2 16.7999 14.2V15.4Z" fill="#347AE2"/>
<path d="M13 27.2L12.5757 27.6243C12.3414 27.3899 12.3414 27.0101 12.5757 26.7757L13 27.2ZM17.2243 30.5757C17.4586 30.8101 17.4586 31.1899 17.2243 31.4243C16.9899 31.6586 16.6101 31.6586 16.3757 31.4243L17.2243 30.5757ZM16.3757 22.9757C16.6101 22.7414 16.9899 22.7414 17.2243 22.9757C17.4586 23.2101 17.4586 23.5899 17.2243 23.8243L16.3757 22.9757ZM13 26.6H24.4V27.8H13V26.6ZM13.4243 26.7757L17.2243 30.5757L16.3757 31.4243L12.5757 27.6243L13.4243 26.7757ZM12.5757 26.7757L16.3757 22.9757L17.2243 23.8243L13.4243 27.6243L12.5757 26.7757ZM24.4 26.6C26.1673 26.6 27.6 25.1673 27.6 23.4H28.8C28.8 25.8301 26.8301 27.8 24.4 27.8V26.6Z" fill="#347AE2"/>
</svg>
