<?xml version="1.0" encoding="utf-8"?><svg viewBox="0 0 42 42" xmlns="http://www.w3.org/2000/svg" xmlns:xlink="http://www.w3.org/1999/xlink"><style>:root>svg{display:none}:root>svg:target{display:block}</style><svg fill="none" viewBox="0 0 42 42" id="swap" xmlns="http://www.w3.org/2000/svg"><rect width="42" height="42" rx="21" fill="#fff"/><path d="M28.2 14.8l.424-.424a.6.6 0 010 .848L28.2 14.8zm-4.224-3.376a.6.6 0 01.848-.848l-.848.848zm.848 7.6a.6.6 0 11-.848-.848l.848.848zM28.2 15.4H16.8v-1.2h11.4v1.2zm-.424-.176l-3.8-3.8.848-.848 3.8 3.8-.848.848zm.848 0l-3.8 3.8-.848-.848 3.8-3.8.848.848zM16.8 15.4a3.2 3.2 0 00-3.2 3.2h-1.2a4.4 4.4 0 014.4-4.4v1.2zM13 27.2l-.424.424a.6.6 0 010-.848L13 27.2zm4.224 3.376a.6.6 0 01-.848.848l.848-.848zm-.848-7.6a.6.6 0 01.848.848l-.848-.848zM13 26.6h11.4v1.2H13v-1.2zm.424.176l3.8 3.8-.848.848-3.8-3.8.848-.848zm-.848 0l3.8-3.8.848.848-3.8 3.8-.848-.848zM24.4 26.6a3.2 3.2 0 003.2-3.2h1.2a4.4 4.4 0 01-4.4 4.4v-1.2z" fill="#347AE2"/></svg></svg>